<svg id="Layer_1" data-name="Layer 1" xmlns="http://www.w3.org/2000/svg" xmlns:xlink="http://www.w3.org/1999/xlink" viewBox="0 0 588.76 596.32"><defs><style>.cls-1{fill:none;stroke:#82c6ff;stroke-miterlimit:10;stroke-width:40px;}.cls-2{fill:url(#linear-gradient);}</style><linearGradient id="linear-gradient" x1="180.68" y1="206.67" x2="372.32" y2="317.32" gradientUnits="userSpaceOnUse"><stop offset="0" stop-color="#f79bb9"/><stop offset="0.7" stop-color="#3facff"/><stop offset="1" stop-color="#6af8ff"/></linearGradient></defs><title>stepring</title><path class="cls-1" d="M228.51,27.08c149.72-34.28,298.89,59.3,333.17,209s-59.3,298.89-209,333.17a277,277,0,0,1-110,2.93C135.79,553.42,45.24,472.68,19.49,360.25" transform="translate(0.01 0)"/><path class="cls-2" d="M194.88,182.08V226.3h17.68V213l13.27,13.27-13.27,13.27,13.28,13.25,13.26-13.25,4.43,4.36a64.8,64.8,0,0,0,40.93,104.31l0,22.89H259V391h25.43v23.22h19.9V391h25.43v-19.9H304.33V348.21h0a64.8,64.8,0,0,0,41-104.24L376.2,213v28.75h17.68v-59.7h-59.7v17.69h28.75L331.67,231a64.6,64.6,0,0,0-74.55,0l-4.76-4.74L265.63,213l-13.27-13.26L239.1,213l-13.27-13.26H239.1V182.08Zm99.5,55.32A46.44,46.44,0,1,1,248,283.84a46.44,46.44,0,0,1,46.43-46.44Z" transform="translate(0.01 0)"/></svg>