<?xml version="1.0" encoding="utf-8"?>
<!-- Generator: Adobe Illustrator 23.0.1, SVG Export Plug-In . SVG Version: 6.00 Build 0)  -->
<svg version="1.1" id="Layer_1" xmlns="http://www.w3.org/2000/svg" xmlns:xlink="http://www.w3.org/1999/xlink" x="0px" y="0px"
	 viewBox="0 0 1280 1024" style="enable-background:new 0 0 1280 1024;" xml:space="preserve">
<style type="text/css">
	.st0{fill:#29ABE2;}
	.st1{fill:#FF7FD2;}
	.st2{fill:#FFFFFF;}
	.st3{fill:none;stroke:#1564FF;stroke-width:6;stroke-miterlimit:10;}
</style>
<path class="st0" d="M220.67,211.67c58.62-3.77,152.32-28.86,212.5-1.49c158.34,72.03,274.17,108.16,427.5,58.16
	c4.33,33.51,8.67,67.01,13,100.52c-72.38,5.93-93,28.61-191.33,22.76c-156.95-9.35-200-126.61-453.17-79.91
	C226.33,278.35,223.5,245.01,220.67,211.67z"/>
<path class="st0" d="M283,610.76c58.62-3.77,152.32-28.86,212.5-1.49C653.84,681.3,769.67,717.42,923,667.42
	c4.33,33.51,8.67,67.01,13,100.52c-72.38,5.93-93,28.61-191.33,22.76c-156.95-9.35-200-126.61-453.17-79.91
	C288.67,677.45,285.83,644.1,283,610.76z"/>
<path class="st1" d="M233.67,311.08c58.62-3.77,152.32-28.86,212.5-1.49c158.34,72.03,274.17,108.16,427.5,58.16
	c4.33,33.51,8.67,67.01,13,100.52c-72.38,5.93-93,28.61-191.33,22.76c-156.95-9.35-200-126.61-453.17-79.91
	C239.33,377.76,236.5,344.42,233.67,311.08z"/>
<path class="st1" d="M264.79,509.39c58.62-3.77,152.32-28.86,212.5-1.49c158.34,72.03,274.17,108.16,427.5,58.16
	c4.33,33.51,8.67,67.01,13,100.52c-72.38,5.93-93,28.61-191.33,22.76c-156.95-9.35-200-126.61-453.17-79.91
	C270.45,576.08,267.62,542.73,264.79,509.39z"/>
<path class="st2" d="M250.25,410.59c58.62-3.77,152.32-28.86,212.5-1.49c158.34,72.03,274.17,108.16,427.5,58.16
	c4.33,33.51,8.67,67.01,13,100.52c-72.38,5.93-93,28.61-191.33,22.76c-156.95-9.35-200-126.61-453.17-79.91
	C255.91,477.27,253.08,443.93,250.25,410.59z"/>
<line class="st1" x1="1800.12" y1="489.11" x2="1800.12" y2="618.95"/>
<line class="st1" x1="1800.12" y1="244.95" x2="1800.12" y2="374.78"/>
<line class="st2" x1="1800.12" y1="374.78" x2="1800.12" y2="504.61"/>
<path class="st3" d="M931.42,769.11c-128.93,36.45-218.61,22.65-276.67,3.33c-63.77-21.22-96.42-51.43-173.33-66.67
	c-77.93-15.44-145.81-4.5-190,6.67l-70.75-500.77c44.19-11.17,112.07-22.1,190-6.67c76.92,15.24,109.56,45.45,173.33,66.67
	c58.05,19.31,147.74,33.11,276.67-3.33L931.42,769.11z"/>
<path class="st3" d="M233.67,312.19c44.19-11.17,112.07-22.1,190-6.67c76.92,15.24,109.56,45.45,173.33,66.67
	c58.05,19.31,147.74,33.11,276.67-3.33"/>
<path class="st3" d="M891.12,468.44c-128.93,36.45-218.61,22.65-276.67,3.33c-63.77-21.22-96.42-51.43-173.33-66.67
	c-77.93-15.44-145.81-4.5-190,6.67"/>
<path class="st3" d="M901.75,568.03c-128.93,36.45-218.61,22.65-276.67,3.33c-63.77-21.22-96.42-51.43-173.33-66.67
	c-77.93-15.44-145.81-4.5-190,6.67"/>
<path class="st3" d="M919.29,667.61c-128.93,36.45-218.61,22.65-276.67,3.33c-63.77-21.22-96.42-51.43-173.33-66.67
	c-77.93-15.44-145.81-4.5-190,6.67"/>
</svg>
